<?xml version="1.0" standalone="no"?>
<!DOCTYPE svg PUBLIC "-//W3C//DTD SVG 20010904//EN"
 "http://www.w3.org/TR/2001/REC-SVG-20010904/DTD/svg10.dtd">
<svg version="1.0" xmlns="http://www.w3.org/2000/svg"
 width="304.000000pt" height="310.000000pt" viewBox="0 0 304.000000 310.000000"
 preserveAspectRatio="xMidYMid meet">

<g transform="translate(0.000000,310.000000) scale(0.100000,-0.100000)"
fill="#000000" stroke="none">
<path d="M0 1550 l0 -1550 1520 0 1520 0 -2 1418 -3 1417 -29 62 c-56 122
-150 177 -330 193 -56 5 -680 9 -1388 10 l-1288 0 0 -1550z m2727 1362 c77
-40 120 -100 130 -182 8 -68 -12 -132 -58 -184 -86 -97 -239 -106 -333 -18
-38 36 -76 118 -76 166 0 109 70 201 180 237 37 12 113 3 157 -19z m-1917
-543 c129 -33 205 -173 203 -374 -2 -222 -86 -347 -252 -375 -100 -17 -175 3
-237 62 l-31 29 -6 -218 c-4 -120 -7 -317 -7 -438 l0 -219 37 36 c55 52 99 71
179 76 123 8 193 -29 241 -125 l28 -58 3 -282 3 -283 -95 0 -96 0 0 225 c0
325 -16 375 -120 375 -66 0 -103 -20 -134 -73 -35 -59 -46 -144 -46 -349 l0
-178 -95 0 -95 0 0 1085 0 1085 95 0 95 0 0 -47 0 -47 32 33 c70 72 171 92
298 60z m788 -5 c125 -35 211 -186 212 -371 l0 -53 -254 0 -254 0 7 -33 c14
-62 59 -115 116 -137 54 -22 166 -14 237 15 106 45 98 48 98 -38 l0 -75 -48
-20 c-108 -47 -297 -47 -401 -1 -130 57 -201 203 -188 387 7 104 37 180 98
246 88 97 216 124 377 80z m783 16 c17 0 19 -8 19 -92 l0 -93 -74 0 c-86 0
-106 -12 -140 -85 -19 -40 -21 -67 -24 -262 l-4 -218 -94 0 -94 0 0 370 0 370
85 0 85 0 0 -77 c1 -74 1 -76 14 -47 16 37 71 100 100 116 28 15 78 27 94 22
8 -2 22 -4 33 -4z m329 -380 l0 -370 -95 0 -95 0 0 370 0 370 95 0 95 0 0
-370z m-560 -945 l0 -216 30 34 c16 19 53 45 82 57 44 19 65 22 133 18 129 -7
208 -64 256 -184 20 -52 23 -76 23 -194 0 -117 -3 -143 -22 -191 -35 -88 -73
-133 -139 -165 -50 -25 -70 -29 -138 -28 -90 0 -132 15 -187 63 -20 17 -38 31
-42 31 -3 0 -6 -18 -6 -40 l0 -40 -90 0 -90 0 0 535 0 535 95 0 95 0 0 -215z
m-830 -357 c0 -135 5 -259 10 -280 6 -20 25 -49 42 -63 27 -23 39 -26 79 -23
60 6 101 36 131 96 22 44 23 59 26 280 l3 232 95 0 94 0 0 -370 0 -370 -90 0
-90 0 0 49 0 48 -37 -35 c-60 -56 -115 -76 -209 -77 -73 0 -85 3 -129 30 -33
21 -57 47 -79 85 l-31 55 -3 293 -3 292 95 0 96 0 0 -242z"/>
<path d="M605 2225 c-47 -17 -79 -53 -100 -114 -20 -58 -19 -165 1 -224 19
-56 79 -113 128 -122 51 -10 116 24 145 75 61 109 39 315 -40 371 -35 26 -88
31 -134 14z"/>
<path d="M1437 2239 c-66 -11 -113 -62 -131 -141 l-6 -28 166 0 166 0 -7 37
c-19 101 -88 150 -188 132z"/>
<path d="M2242 780 c-66 -40 -105 -174 -83 -282 38 -181 208 -227 290 -78 53
95 35 278 -34 347 -29 29 -39 33 -86 33 -37 0 -65 -7 -87 -20z"/>
</g>
</svg>
